<svg xmlns="http://www.w3.org/2000/svg" xmlns:xlink="http://www.w3.org/1999/xlink" width="500" zoomAndPan="magnify" viewBox="0 0 375 374.999991" height="500" preserveAspectRatio="xMidYMid meet" version="1.0"><defs><g/><clipPath id="2a09aac5bf"><path d="M 37.5 5.222656 L 337.5 5.222656 L 337.5 274.472656 L 37.5 274.472656 Z M 37.5 5.222656 " clip-rule="nonzero"/></clipPath><clipPath id="b4de33e517"><path d="M 156.761719 107.449219 L 177.8125 107.449219 L 177.8125 128.496094 L 156.761719 128.496094 Z M 156.761719 107.449219 " clip-rule="nonzero"/></clipPath><clipPath id="c655243320"><path d="M 167.285156 107.449219 C 161.472656 107.449219 156.761719 112.160156 156.761719 117.972656 C 156.761719 123.785156 161.472656 128.496094 167.285156 128.496094 C 173.097656 128.496094 177.8125 123.785156 177.8125 117.972656 C 177.8125 112.160156 173.097656 107.449219 167.285156 107.449219 Z M 167.285156 107.449219 " clip-rule="nonzero"/></clipPath><clipPath id="a22b3b1f35"><path d="M 0.761719 0.449219 L 21.8125 0.449219 L 21.8125 21.496094 L 0.761719 21.496094 Z M 0.761719 0.449219 " clip-rule="nonzero"/></clipPath><clipPath id="a6021baf98"><path d="M 11.285156 0.449219 C 5.472656 0.449219 0.761719 5.160156 0.761719 10.972656 C 0.761719 16.785156 5.472656 21.496094 11.285156 21.496094 C 17.097656 21.496094 21.8125 16.785156 21.8125 10.972656 C 21.8125 5.160156 17.097656 0.449219 11.285156 0.449219 Z M 11.285156 0.449219 " clip-rule="nonzero"/></clipPath><clipPath id="e53d537681"><rect x="0" width="22" y="0" height="22"/></clipPath><clipPath id="d089c7be69"><path d="M 156.761719 187.5 L 177.8125 187.5 L 177.8125 208.550781 L 156.761719 208.550781 Z M 156.761719 187.5 " clip-rule="nonzero"/></clipPath><clipPath id="7ddebbde01"><path d="M 167.285156 187.5 C 161.472656 187.5 156.761719 192.210938 156.761719 198.023438 C 156.761719 203.835938 161.472656 208.550781 167.285156 208.550781 C 173.097656 208.550781 177.8125 203.835938 177.8125 198.023438 C 177.8125 192.210938 173.097656 187.5 167.285156 187.5 Z M 167.285156 187.5 " clip-rule="nonzero"/></clipPath><clipPath id="70bb9019e3"><path d="M 0.761719 0.5 L 21.8125 0.5 L 21.8125 21.550781 L 0.761719 21.550781 Z M 0.761719 0.5 " clip-rule="nonzero"/></clipPath><clipPath id="d7a7fd16af"><path d="M 11.285156 0.5 C 5.472656 0.5 0.761719 5.210938 0.761719 11.023438 C 0.761719 16.835938 5.472656 21.550781 11.285156 21.550781 C 17.097656 21.550781 21.8125 16.835938 21.8125 11.023438 C 21.8125 5.210938 17.097656 0.5 11.285156 0.5 Z M 11.285156 0.5 " clip-rule="nonzero"/></clipPath><clipPath id="4df7700901"><rect x="0" width="22" y="0" height="22"/></clipPath><clipPath id="a0ea4048b7"><path d="M 187.5 149.761719 L 208.550781 149.761719 L 208.550781 170.8125 L 187.5 170.8125 Z M 187.5 149.761719 " clip-rule="nonzero"/></clipPath><clipPath id="f85913b8c5"><path d="M 198.023438 149.761719 C 192.210938 149.761719 187.5 154.472656 187.5 160.285156 C 187.5 166.097656 192.210938 170.8125 198.023438 170.8125 C 203.835938 170.8125 208.550781 166.097656 208.550781 160.285156 C 208.550781 154.472656 203.835938 149.761719 198.023438 149.761719 Z M 198.023438 149.761719 " clip-rule="nonzero"/></clipPath><clipPath id="d00c36c50d"><path d="M 0.5 0.761719 L 21.550781 0.761719 L 21.550781 21.8125 L 0.5 21.8125 Z M 0.5 0.761719 " clip-rule="nonzero"/></clipPath><clipPath id="691e9ada4e"><path d="M 11.023438 0.761719 C 5.210938 0.761719 0.5 5.472656 0.5 11.285156 C 0.5 17.097656 5.210938 21.8125 11.023438 21.8125 C 16.835938 21.8125 21.550781 17.097656 21.550781 11.285156 C 21.550781 5.472656 16.835938 0.761719 11.023438 0.761719 Z M 11.023438 0.761719 " clip-rule="nonzero"/></clipPath><clipPath id="7775ac15f9"><rect x="0" width="22" y="0" height="22"/></clipPath></defs><rect x="-37.5" width="450" fill="#ffffff" y="-37.499999" height="449.999989" fill-opacity="1"/><rect x="-37.5" width="450" fill="#141414" y="-37.499999" height="449.999989" fill-opacity="1"/><g clip-path="url(#2a09aac5bf)"><path fill="#14b7dc" d="M 179.960938 179.679688 L 186.964844 171.726562 C 190.289062 175.761719 194.917969 178.371094 200.382812 179.085938 L 200.382812 218.378906 L 162.152344 240.226562 L 124.046875 262.304688 L 85.9375 240.34375 L 47.828125 218.378906 L 47.828125 130.292969 L 68.839844 118.0625 L 68.839844 106.191406 L 37.5 124.355469 L 37.5 224.316406 L 124.046875 274.296875 L 210.589844 224.316406 L 210.589844 177.660156 C 218.070312 174.574219 223.175781 167.214844 223.175781 158.664062 C 223.175781 147.386719 213.914062 138.128906 202.636719 138.128906 C 195.988281 138.128906 190.050781 141.214844 186.253906 146.082031 L 179.128906 137.890625 C 184.234375 134.449219 187.441406 128.867188 188.035156 122.574219 L 212.964844 108.09375 L 251.074219 86.128906 L 289.183594 108.09375 L 327.289062 130.054688 L 327.289062 218.144531 L 289.0625 240.226562 L 250.953125 262.1875 L 212.847656 240.226562 L 206.910156 236.902344 L 196.582031 242.835938 L 250.953125 274.179688 L 337.5 224.199219 L 337.5 124.238281 L 250.953125 74.257812 L 185.777344 111.890625 C 182.453125 105.125 175.449219 100.375 167.378906 100.375 C 156.097656 100.375 146.839844 109.636719 146.839844 120.914062 C 146.839844 131.835938 155.503906 140.976562 166.546875 141.453125 L 166.546875 175.523438 C 159.1875 175.878906 153.011719 179.917969 149.449219 185.972656 L 123.808594 171.132812 L 85.699219 149.167969 L 85.699219 61.078125 L 123.808594 39.117188 L 161.917969 17.152344 L 200.023438 39.117188 L 238.132812 61.078125 L 238.132812 73.78125 L 248.460938 67.847656 L 248.460938 55.144531 L 162.035156 5.402344 L 75.488281 55.382812 L 75.488281 155.339844 L 146.839844 196.65625 C 146.957031 207.933594 156.097656 217.074219 167.378906 217.074219 C 178.65625 217.074219 187.914062 207.816406 187.914062 196.535156 C 188.152344 189.414062 184.828125 183.476562 179.960938 179.679688 Z M 185.898438 170.179688 L 178.535156 178.492188 C 175.570312 176.59375 172.246094 175.523438 168.566406 175.40625 L 168.566406 141.453125 C 171.886719 141.332031 174.976562 140.382812 177.824219 138.839844 L 185.542969 147.507812 C 183.402344 150.59375 182.453125 154.511719 182.453125 158.429688 C 182.21875 162.941406 183.640625 166.976562 185.898438 170.179688 Z M 185.898438 170.179688 " fill-opacity="1" fill-rule="evenodd"/></g><g clip-path="url(#b4de33e517)"><g clip-path="url(#c655243320)"><g transform="matrix(1, 0, 0, 1, 156, 107)"><g clip-path="url(#e53d537681)"><g clip-path="url(#a22b3b1f35)"><g clip-path="url(#a6021baf98)"><path fill="#6ee4ff" d="M 0.761719 0.449219 L 21.8125 0.449219 L 21.8125 21.496094 L 0.761719 21.496094 Z M 0.761719 0.449219 " fill-opacity="1" fill-rule="nonzero"/></g></g></g></g></g></g><g clip-path="url(#d089c7be69)"><g clip-path="url(#7ddebbde01)"><g transform="matrix(1, 0, 0, 1, 156, 187)"><g clip-path="url(#4df7700901)"><g clip-path="url(#70bb9019e3)"><g clip-path="url(#d7a7fd16af)"><path fill="#6ee4ff" d="M 0.761719 0.5 L 21.8125 0.5 L 21.8125 21.550781 L 0.761719 21.550781 Z M 0.761719 0.5 " fill-opacity="1" fill-rule="nonzero"/></g></g></g></g></g></g><g clip-path="url(#a0ea4048b7)"><g clip-path="url(#f85913b8c5)"><g transform="matrix(1, 0, 0, 1, 187, 149)"><g clip-path="url(#7775ac15f9)"><g clip-path="url(#d00c36c50d)"><g clip-path="url(#691e9ada4e)"><path fill="#6ee4ff" d="M 0.5 0.761719 L 21.550781 0.761719 L 21.550781 21.8125 L 0.5 21.8125 Z M 0.5 0.761719 " fill-opacity="1" fill-rule="nonzero"/></g></g></g></g></g></g><g fill="#06ecfc" fill-opacity="1"><g transform="translate(12.31668, 310.82954)"><g><path d="M 9.1875 0.359375 C 7.5625 0.359375 5.988281 0.140625 4.46875 -0.296875 C 2.957031 -0.742188 1.742188 -1.320312 0.828125 -2.03125 L 2.4375 -5.609375 C 3.320312 -4.960938 4.367188 -4.441406 5.578125 -4.046875 C 6.796875 -3.660156 8.007812 -3.46875 9.21875 -3.46875 C 10.570312 -3.46875 11.570312 -3.664062 12.21875 -4.0625 C 12.863281 -4.46875 13.1875 -5.003906 13.1875 -5.671875 C 13.1875 -6.160156 12.992188 -6.566406 12.609375 -6.890625 C 12.234375 -7.210938 11.742188 -7.46875 11.140625 -7.65625 C 10.546875 -7.851562 9.738281 -8.070312 8.71875 -8.3125 C 7.15625 -8.6875 5.875 -9.054688 4.875 -9.421875 C 3.875 -9.796875 3.015625 -10.394531 2.296875 -11.21875 C 1.585938 -12.039062 1.234375 -13.140625 1.234375 -14.515625 C 1.234375 -15.703125 1.554688 -16.78125 2.203125 -17.75 C 2.847656 -18.726562 3.820312 -19.5 5.125 -20.0625 C 6.425781 -20.632812 8.019531 -20.921875 9.90625 -20.921875 C 11.21875 -20.921875 12.5 -20.757812 13.75 -20.4375 C 15 -20.125 16.09375 -19.675781 17.03125 -19.09375 L 15.5625 -15.484375 C 13.664062 -16.554688 11.769531 -17.09375 9.875 -17.09375 C 8.539062 -17.09375 7.554688 -16.875 6.921875 -16.4375 C 6.285156 -16.007812 5.96875 -15.445312 5.96875 -14.75 C 5.96875 -14.039062 6.332031 -13.515625 7.0625 -13.171875 C 7.800781 -12.828125 8.921875 -12.488281 10.421875 -12.15625 C 11.992188 -11.789062 13.28125 -11.421875 14.28125 -11.046875 C 15.28125 -10.671875 16.132812 -10.082031 16.84375 -9.28125 C 17.5625 -8.476562 17.921875 -7.390625 17.921875 -6.015625 C 17.921875 -4.847656 17.59375 -3.773438 16.9375 -2.796875 C 16.28125 -1.828125 15.296875 -1.054688 13.984375 -0.484375 C 12.671875 0.078125 11.070312 0.359375 9.1875 0.359375 Z M 9.1875 0.359375 "/></g></g></g><g fill="#06ecfc" fill-opacity="1"><g transform="translate(31.640417, 310.82954)"><g><path d="M 2.4375 -20.5625 L 7.203125 -20.5625 L 7.203125 -3.875 L 17.5 -3.875 L 17.5 0 L 2.4375 0 Z M 2.4375 -20.5625 "/></g></g></g><g fill="#06ecfc" fill-opacity="1"><g transform="translate(49.965669, 310.82954)"><g><path d="M 12.390625 0.359375 C 10.253906 0.359375 8.328125 -0.0976562 6.609375 -1.015625 C 4.898438 -1.941406 3.5625 -3.210938 2.59375 -4.828125 C 1.625 -6.441406 1.140625 -8.257812 1.140625 -10.28125 C 1.140625 -12.300781 1.625 -14.117188 2.59375 -15.734375 C 3.5625 -17.347656 4.898438 -18.613281 6.609375 -19.53125 C 8.328125 -20.457031 10.253906 -20.921875 12.390625 -20.921875 C 14.523438 -20.921875 16.441406 -20.457031 18.140625 -19.53125 C 19.847656 -18.613281 21.191406 -17.347656 22.171875 -15.734375 C 23.148438 -14.117188 23.640625 -12.300781 23.640625 -10.28125 C 23.640625 -8.257812 23.148438 -6.441406 22.171875 -4.828125 C 21.191406 -3.210938 19.847656 -1.941406 18.140625 -1.015625 C 16.441406 -0.0976562 14.523438 0.359375 12.390625 0.359375 Z M 12.390625 -3.703125 C 13.609375 -3.703125 14.707031 -3.976562 15.6875 -4.53125 C 16.664062 -5.09375 17.429688 -5.875 17.984375 -6.875 C 18.546875 -7.875 18.828125 -9.007812 18.828125 -10.28125 C 18.828125 -11.550781 18.546875 -12.6875 17.984375 -13.6875 C 17.429688 -14.6875 16.664062 -15.460938 15.6875 -16.015625 C 14.707031 -16.578125 13.609375 -16.859375 12.390625 -16.859375 C 11.179688 -16.859375 10.085938 -16.578125 9.109375 -16.015625 C 8.128906 -15.460938 7.359375 -14.6875 6.796875 -13.6875 C 6.242188 -12.6875 5.96875 -11.550781 5.96875 -10.28125 C 5.96875 -9.007812 6.242188 -7.875 6.796875 -6.875 C 7.359375 -5.875 8.128906 -5.09375 9.109375 -4.53125 C 10.085938 -3.976562 11.179688 -3.703125 12.390625 -3.703125 Z M 12.390625 -3.703125 "/></g></g></g><g fill="#06ecfc" fill-opacity="1"><g transform="translate(75.339038, 310.82954)"><g><path d="M 16.328125 -10.609375 L 20.6875 -10.609375 L 20.6875 -2.265625 C 19.5625 -1.421875 18.265625 -0.769531 16.796875 -0.3125 C 15.328125 0.132812 13.847656 0.359375 12.359375 0.359375 C 10.234375 0.359375 8.316406 -0.09375 6.609375 -1 C 4.898438 -1.914062 3.5625 -3.179688 2.59375 -4.796875 C 1.625 -6.410156 1.140625 -8.238281 1.140625 -10.28125 C 1.140625 -12.320312 1.625 -14.148438 2.59375 -15.765625 C 3.5625 -17.378906 4.90625 -18.640625 6.625 -19.546875 C 8.351562 -20.460938 10.296875 -20.921875 12.453125 -20.921875 C 14.253906 -20.921875 15.890625 -20.613281 17.359375 -20 C 18.828125 -19.394531 20.0625 -18.515625 21.0625 -17.359375 L 18 -14.546875 C 16.53125 -16.085938 14.757812 -16.859375 12.6875 -16.859375 C 11.375 -16.859375 10.207031 -16.582031 9.1875 -16.03125 C 8.175781 -15.488281 7.382812 -14.71875 6.8125 -13.71875 C 6.25 -12.71875 5.96875 -11.570312 5.96875 -10.28125 C 5.96875 -9.007812 6.25 -7.875 6.8125 -6.875 C 7.382812 -5.875 8.171875 -5.09375 9.171875 -4.53125 C 10.179688 -3.976562 11.332031 -3.703125 12.625 -3.703125 C 14 -3.703125 15.234375 -3.992188 16.328125 -4.578125 Z M 16.328125 -10.609375 "/></g></g></g><g fill="#06ecfc" fill-opacity="1"><g transform="translate(98.568597, 310.82954)"><g><path d="M 15.984375 -4.40625 L 6.4375 -4.40625 L 4.609375 0 L -0.265625 0 L 8.90625 -20.5625 L 13.59375 -20.5625 L 22.796875 0 L 17.796875 0 Z M 14.484375 -8.015625 L 11.21875 -15.890625 L 7.953125 -8.015625 Z M 14.484375 -8.015625 "/></g></g></g><g fill="#06ecfc" fill-opacity="1"><g transform="translate(121.651329, 310.82954)"><g><path d="M 21.296875 -20.5625 L 21.296875 0 L 17.390625 0 L 7.140625 -12.484375 L 7.140625 0 L 2.4375 0 L 2.4375 -20.5625 L 6.375 -20.5625 L 16.59375 -8.078125 L 16.59375 -20.5625 Z M 21.296875 -20.5625 "/></g></g></g><g fill="#06ecfc" fill-opacity="1"><g transform="translate(145.967482, 310.82954)"><g/></g></g><g fill="#06ecfc" fill-opacity="1"><g transform="translate(154.86588, 310.82954)"><g><path d="M 9.1875 0.359375 C 7.5625 0.359375 5.988281 0.140625 4.46875 -0.296875 C 2.957031 -0.742188 1.742188 -1.320312 0.828125 -2.03125 L 2.4375 -5.609375 C 3.320312 -4.960938 4.367188 -4.441406 5.578125 -4.046875 C 6.796875 -3.660156 8.007812 -3.46875 9.21875 -3.46875 C 10.570312 -3.46875 11.570312 -3.664062 12.21875 -4.0625 C 12.863281 -4.46875 13.1875 -5.003906 13.1875 -5.671875 C 13.1875 -6.160156 12.992188 -6.566406 12.609375 -6.890625 C 12.234375 -7.210938 11.742188 -7.46875 11.140625 -7.65625 C 10.546875 -7.851562 9.738281 -8.070312 8.71875 -8.3125 C 7.15625 -8.6875 5.875 -9.054688 4.875 -9.421875 C 3.875 -9.796875 3.015625 -10.394531 2.296875 -11.21875 C 1.585938 -12.039062 1.234375 -13.140625 1.234375 -14.515625 C 1.234375 -15.703125 1.554688 -16.78125 2.203125 -17.75 C 2.847656 -18.726562 3.820312 -19.5 5.125 -20.0625 C 6.425781 -20.632812 8.019531 -20.921875 9.90625 -20.921875 C 11.21875 -20.921875 12.5 -20.757812 13.75 -20.4375 C 15 -20.125 16.09375 -19.675781 17.03125 -19.09375 L 15.5625 -15.484375 C 13.664062 -16.554688 11.769531 -17.09375 9.875 -17.09375 C 8.539062 -17.09375 7.554688 -16.875 6.921875 -16.4375 C 6.285156 -16.007812 5.96875 -15.445312 5.96875 -14.75 C 5.96875 -14.039062 6.332031 -13.515625 7.0625 -13.171875 C 7.800781 -12.828125 8.921875 -12.488281 10.421875 -12.15625 C 11.992188 -11.789062 13.28125 -11.421875 14.28125 -11.046875 C 15.28125 -10.671875 16.132812 -10.082031 16.84375 -9.28125 C 17.5625 -8.476562 17.921875 -7.390625 17.921875 -6.015625 C 17.921875 -4.847656 17.59375 -3.773438 16.9375 -2.796875 C 16.28125 -1.828125 15.296875 -1.054688 13.984375 -0.484375 C 12.671875 0.078125 11.070312 0.359375 9.1875 0.359375 Z M 9.1875 0.359375 "/></g></g></g><g fill="#06ecfc" fill-opacity="1"><g transform="translate(174.189617, 310.82954)"><g><path d="M 12.390625 0.359375 C 10.253906 0.359375 8.328125 -0.0976562 6.609375 -1.015625 C 4.898438 -1.941406 3.5625 -3.210938 2.59375 -4.828125 C 1.625 -6.441406 1.140625 -8.257812 1.140625 -10.28125 C 1.140625 -12.300781 1.625 -14.117188 2.59375 -15.734375 C 3.5625 -17.347656 4.898438 -18.613281 6.609375 -19.53125 C 8.328125 -20.457031 10.253906 -20.921875 12.390625 -20.921875 C 14.523438 -20.921875 16.441406 -20.457031 18.140625 -19.53125 C 19.847656 -18.613281 21.191406 -17.347656 22.171875 -15.734375 C 23.148438 -14.117188 23.640625 -12.300781 23.640625 -10.28125 C 23.640625 -8.257812 23.148438 -6.441406 22.171875 -4.828125 C 21.191406 -3.210938 19.847656 -1.941406 18.140625 -1.015625 C 16.441406 -0.0976562 14.523438 0.359375 12.390625 0.359375 Z M 12.390625 -3.703125 C 13.609375 -3.703125 14.707031 -3.976562 15.6875 -4.53125 C 16.664062 -5.09375 17.429688 -5.875 17.984375 -6.875 C 18.546875 -7.875 18.828125 -9.007812 18.828125 -10.28125 C 18.828125 -11.550781 18.546875 -12.6875 17.984375 -13.6875 C 17.429688 -14.6875 16.664062 -15.460938 15.6875 -16.015625 C 14.707031 -16.578125 13.609375 -16.859375 12.390625 -16.859375 C 11.179688 -16.859375 10.085938 -16.578125 9.109375 -16.015625 C 8.128906 -15.460938 7.359375 -14.6875 6.796875 -13.6875 C 6.242188 -12.6875 5.96875 -11.550781 5.96875 -10.28125 C 5.96875 -9.007812 6.242188 -7.875 6.796875 -6.875 C 7.359375 -5.875 8.128906 -5.09375 9.109375 -4.53125 C 10.085938 -3.976562 11.179688 -3.703125 12.390625 -3.703125 Z M 12.390625 -3.703125 "/></g></g></g><g fill="#06ecfc" fill-opacity="1"><g transform="translate(199.562986, 310.82954)"><g><path d="M 2.4375 -20.5625 L 7.203125 -20.5625 L 7.203125 -3.875 L 17.5 -3.875 L 17.5 0 L 2.4375 0 Z M 2.4375 -20.5625 "/></g></g></g><g fill="#06ecfc" fill-opacity="1"><g transform="translate(217.888238, 310.82954)"><g><path d="M 11.578125 0.359375 C 8.640625 0.359375 6.351562 -0.453125 4.71875 -2.078125 C 3.082031 -3.710938 2.265625 -6.035156 2.265625 -9.046875 L 2.265625 -20.5625 L 7.015625 -20.5625 L 7.015625 -9.21875 C 7.015625 -5.539062 8.546875 -3.703125 11.609375 -3.703125 C 13.085938 -3.703125 14.21875 -4.144531 15 -5.03125 C 15.789062 -5.925781 16.1875 -7.320312 16.1875 -9.21875 L 16.1875 -20.5625 L 20.890625 -20.5625 L 20.890625 -9.046875 C 20.890625 -6.035156 20.070312 -3.710938 18.4375 -2.078125 C 16.800781 -0.453125 14.515625 0.359375 11.578125 0.359375 Z M 11.578125 0.359375 "/></g></g></g><g fill="#06ecfc" fill-opacity="1"><g transform="translate(241.617034, 310.82954)"><g><path d="M 12.28125 0.359375 C 10.1875 0.359375 8.289062 -0.09375 6.59375 -1 C 4.894531 -1.914062 3.5625 -3.179688 2.59375 -4.796875 C 1.625 -6.410156 1.140625 -8.238281 1.140625 -10.28125 C 1.140625 -12.320312 1.625 -14.148438 2.59375 -15.765625 C 3.5625 -17.378906 4.894531 -18.640625 6.59375 -19.546875 C 8.289062 -20.460938 10.195312 -20.921875 12.3125 -20.921875 C 14.09375 -20.921875 15.703125 -20.601562 17.140625 -19.96875 C 18.578125 -19.34375 19.785156 -18.441406 20.765625 -17.265625 L 17.71875 -14.453125 C 16.320312 -16.054688 14.597656 -16.859375 12.546875 -16.859375 C 11.273438 -16.859375 10.140625 -16.578125 9.140625 -16.015625 C 8.140625 -15.460938 7.359375 -14.6875 6.796875 -13.6875 C 6.242188 -12.6875 5.96875 -11.550781 5.96875 -10.28125 C 5.96875 -9.007812 6.242188 -7.875 6.796875 -6.875 C 7.359375 -5.875 8.140625 -5.09375 9.140625 -4.53125 C 10.140625 -3.976562 11.273438 -3.703125 12.546875 -3.703125 C 14.597656 -3.703125 16.320312 -4.515625 17.71875 -6.140625 L 20.765625 -3.3125 C 19.785156 -2.125 18.570312 -1.210938 17.125 -0.578125 C 15.675781 0.046875 14.0625 0.359375 12.28125 0.359375 Z M 12.28125 0.359375 "/></g></g></g><g fill="#06ecfc" fill-opacity="1"><g transform="translate(263.730657, 310.82954)"><g><path d="M 2.4375 -20.5625 L 7.203125 -20.5625 L 7.203125 0 L 2.4375 0 Z M 2.4375 -20.5625 "/></g></g></g><g fill="#06ecfc" fill-opacity="1"><g transform="translate(273.950574, 310.82954)"><g><path d="M 12.390625 0.359375 C 10.253906 0.359375 8.328125 -0.0976562 6.609375 -1.015625 C 4.898438 -1.941406 3.5625 -3.210938 2.59375 -4.828125 C 1.625 -6.441406 1.140625 -8.257812 1.140625 -10.28125 C 1.140625 -12.300781 1.625 -14.117188 2.59375 -15.734375 C 3.5625 -17.347656 4.898438 -18.613281 6.609375 -19.53125 C 8.328125 -20.457031 10.253906 -20.921875 12.390625 -20.921875 C 14.523438 -20.921875 16.441406 -20.457031 18.140625 -19.53125 C 19.847656 -18.613281 21.191406 -17.347656 22.171875 -15.734375 C 23.148438 -14.117188 23.640625 -12.300781 23.640625 -10.28125 C 23.640625 -8.257812 23.148438 -6.441406 22.171875 -4.828125 C 21.191406 -3.210938 19.847656 -1.941406 18.140625 -1.015625 C 16.441406 -0.0976562 14.523438 0.359375 12.390625 0.359375 Z M 12.390625 -3.703125 C 13.609375 -3.703125 14.707031 -3.976562 15.6875 -4.53125 C 16.664062 -5.09375 17.429688 -5.875 17.984375 -6.875 C 18.546875 -7.875 18.828125 -9.007812 18.828125 -10.28125 C 18.828125 -11.550781 18.546875 -12.6875 17.984375 -13.6875 C 17.429688 -14.6875 16.664062 -15.460938 15.6875 -16.015625 C 14.707031 -16.578125 13.609375 -16.859375 12.390625 -16.859375 C 11.179688 -16.859375 10.085938 -16.578125 9.109375 -16.015625 C 8.128906 -15.460938 7.359375 -14.6875 6.796875 -13.6875 C 6.242188 -12.6875 5.96875 -11.550781 5.96875 -10.28125 C 5.96875 -9.007812 6.242188 -7.875 6.796875 -6.875 C 7.359375 -5.875 8.128906 -5.09375 9.109375 -4.53125 C 10.085938 -3.976562 11.179688 -3.703125 12.390625 -3.703125 Z M 12.390625 -3.703125 "/></g></g></g><g fill="#06ecfc" fill-opacity="1"><g transform="translate(299.323955, 310.82954)"><g><path d="M 21.296875 -20.5625 L 21.296875 0 L 17.390625 0 L 7.140625 -12.484375 L 7.140625 0 L 2.4375 0 L 2.4375 -20.5625 L 6.375 -20.5625 L 16.59375 -8.078125 L 16.59375 -20.5625 Z M 21.296875 -20.5625 "/></g></g></g><g fill="#06ecfc" fill-opacity="1"><g transform="translate(323.640085, 310.82954)"><g><path d="M 18.359375 -3.8125 L 18.359375 0 L 2.4375 0 L 2.4375 -20.5625 L 17.984375 -20.5625 L 17.984375 -16.75 L 7.171875 -16.75 L 7.171875 -12.28125 L 16.71875 -12.28125 L 16.71875 -8.578125 L 7.171875 -8.578125 L 7.171875 -3.8125 Z M 18.359375 -3.8125 "/></g></g></g><g fill="#06ecfc" fill-opacity="1"><g transform="translate(343.93293, 310.82954)"><g><path d="M 9.1875 0.359375 C 7.5625 0.359375 5.988281 0.140625 4.46875 -0.296875 C 2.957031 -0.742188 1.742188 -1.320312 0.828125 -2.03125 L 2.4375 -5.609375 C 3.320312 -4.960938 4.367188 -4.441406 5.578125 -4.046875 C 6.796875 -3.660156 8.007812 -3.46875 9.21875 -3.46875 C 10.570312 -3.46875 11.570312 -3.664062 12.21875 -4.0625 C 12.863281 -4.46875 13.1875 -5.003906 13.1875 -5.671875 C 13.1875 -6.160156 12.992188 -6.566406 12.609375 -6.890625 C 12.234375 -7.210938 11.742188 -7.46875 11.140625 -7.65625 C 10.546875 -7.851562 9.738281 -8.070312 8.71875 -8.3125 C 7.15625 -8.6875 5.875 -9.054688 4.875 -9.421875 C 3.875 -9.796875 3.015625 -10.394531 2.296875 -11.21875 C 1.585938 -12.039062 1.234375 -13.140625 1.234375 -14.515625 C 1.234375 -15.703125 1.554688 -16.78125 2.203125 -17.75 C 2.847656 -18.726562 3.820312 -19.5 5.125 -20.0625 C 6.425781 -20.632812 8.019531 -20.921875 9.90625 -20.921875 C 11.21875 -20.921875 12.5 -20.757812 13.75 -20.4375 C 15 -20.125 16.09375 -19.675781 17.03125 -19.09375 L 15.5625 -15.484375 C 13.664062 -16.554688 11.769531 -17.09375 9.875 -17.09375 C 8.539062 -17.09375 7.554688 -16.875 6.921875 -16.4375 C 6.285156 -16.007812 5.96875 -15.445312 5.96875 -14.75 C 5.96875 -14.039062 6.332031 -13.515625 7.0625 -13.171875 C 7.800781 -12.828125 8.921875 -12.488281 10.421875 -12.15625 C 11.992188 -11.789062 13.28125 -11.421875 14.28125 -11.046875 C 15.28125 -10.671875 16.132812 -10.082031 16.84375 -9.28125 C 17.5625 -8.476562 17.921875 -7.390625 17.921875 -6.015625 C 17.921875 -4.847656 17.59375 -3.773438 16.9375 -2.796875 C 16.28125 -1.828125 15.296875 -1.054688 13.984375 -0.484375 C 12.671875 0.078125 11.070312 0.359375 9.1875 0.359375 Z M 9.1875 0.359375 "/></g></g></g><g fill="#ffffff" fill-opacity="1"><g transform="translate(38.899918, 351.630387)"><g><path d="M 9.6875 -9.59375 L 6.171875 -9.59375 L 6.171875 0 L 3.796875 0 L 3.796875 -9.59375 L 0.3125 -9.59375 L 0.3125 -11.515625 L 9.6875 -11.515625 Z M 9.6875 -9.59375 "/></g></g></g><g fill="#ffffff" fill-opacity="1"><g transform="translate(53.252445, 351.630387)"><g><path d="M 7.953125 -4.984375 L 3.40625 -4.984375 L 3.40625 -1.90625 L 8.734375 -1.90625 L 8.734375 0 L 1.03125 0 L 1.03125 -11.515625 L 8.71875 -11.515625 L 8.71875 -9.59375 L 3.40625 -9.59375 L 3.40625 -6.84375 L 7.953125 -6.84375 Z M 7.953125 -4.984375 "/></g></g></g><g fill="#ffffff" fill-opacity="1"><g transform="translate(66.696219, 351.630387)"><g><path d="M 10.0625 -3.828125 C 9.96875 -2.585938 9.507812 -1.613281 8.6875 -0.90625 C 7.863281 -0.195312 6.78125 0.15625 5.4375 0.15625 C 3.957031 0.15625 2.796875 -0.335938 1.953125 -1.328125 C 1.109375 -2.328125 0.6875 -3.691406 0.6875 -5.421875 L 0.6875 -6.125 C 0.6875 -7.226562 0.878906 -8.203125 1.265625 -9.046875 C 1.648438 -9.890625 2.203125 -10.535156 2.921875 -10.984375 C 3.648438 -11.441406 4.5 -11.671875 5.46875 -11.671875 C 6.789062 -11.671875 7.859375 -11.3125 8.671875 -10.59375 C 9.484375 -9.882812 9.953125 -8.890625 10.078125 -7.609375 L 7.703125 -7.609375 C 7.648438 -8.347656 7.441406 -8.882812 7.078125 -9.21875 C 6.722656 -9.550781 6.1875 -9.71875 5.46875 -9.71875 C 4.675781 -9.71875 4.082031 -9.429688 3.6875 -8.859375 C 3.289062 -8.296875 3.085938 -7.421875 3.078125 -6.234375 L 3.078125 -5.359375 C 3.078125 -4.117188 3.265625 -3.210938 3.640625 -2.640625 C 4.023438 -2.066406 4.625 -1.78125 5.4375 -1.78125 C 6.164062 -1.78125 6.707031 -1.945312 7.0625 -2.28125 C 7.425781 -2.613281 7.632812 -3.128906 7.6875 -3.828125 Z M 10.0625 -3.828125 "/></g></g></g><g fill="#ffffff" fill-opacity="1"><g transform="translate(81.625597, 351.630387)"><g><path d="M 10.390625 0 L 8.015625 0 L 8.015625 -4.9375 L 3.40625 -4.9375 L 3.40625 0 L 1.03125 0 L 1.03125 -11.515625 L 3.40625 -11.515625 L 3.40625 -6.84375 L 8.015625 -6.84375 L 8.015625 -11.515625 L 10.390625 -11.515625 Z M 10.390625 0 "/></g></g></g><g fill="#ffffff" fill-opacity="1"><g transform="translate(97.400509, 351.630387)"><g><path d="M 10.390625 0 L 8.015625 0 L 3.40625 -7.578125 L 3.40625 0 L 1.03125 0 L 1.03125 -11.515625 L 3.40625 -11.515625 L 8.015625 -3.921875 L 8.015625 -11.515625 L 10.390625 -11.515625 Z M 10.390625 0 "/></g></g></g><g fill="#ffffff" fill-opacity="1"><g transform="translate(113.167514, 351.630387)"><g><path d="M 10.484375 -5.5 C 10.484375 -4.363281 10.28125 -3.367188 9.875 -2.515625 C 9.476562 -1.660156 8.90625 -1 8.15625 -0.53125 C 7.414062 -0.0703125 6.5625 0.15625 5.59375 0.15625 C 4.644531 0.15625 3.796875 -0.0703125 3.046875 -0.53125 C 2.296875 -0.988281 1.710938 -1.640625 1.296875 -2.484375 C 0.890625 -3.335938 0.6875 -4.320312 0.6875 -5.4375 L 0.6875 -6 C 0.6875 -7.132812 0.890625 -8.128906 1.296875 -8.984375 C 1.703125 -9.847656 2.273438 -10.507812 3.015625 -10.96875 C 3.765625 -11.4375 4.617188 -11.671875 5.578125 -11.671875 C 6.535156 -11.671875 7.382812 -11.4375 8.125 -10.96875 C 8.875 -10.507812 9.453125 -9.847656 9.859375 -8.984375 C 10.273438 -8.128906 10.484375 -7.132812 10.484375 -6 Z M 8.078125 -6.015625 C 8.078125 -7.222656 7.859375 -8.140625 7.421875 -8.765625 C 6.992188 -9.390625 6.378906 -9.703125 5.578125 -9.703125 C 4.785156 -9.703125 4.171875 -9.390625 3.734375 -8.765625 C 3.304688 -8.148438 3.085938 -7.242188 3.078125 -6.046875 L 3.078125 -5.5 C 3.078125 -4.320312 3.289062 -3.40625 3.71875 -2.75 C 4.15625 -2.101562 4.78125 -1.78125 5.59375 -1.78125 C 6.394531 -1.78125 7.003906 -2.09375 7.421875 -2.71875 C 7.847656 -3.34375 8.066406 -4.253906 8.078125 -5.453125 Z M 8.078125 -6.015625 "/></g></g></g><g fill="#ffffff" fill-opacity="1"><g transform="translate(128.68165, 351.630387)"><g><path d="M 3.40625 -1.90625 L 8.4375 -1.90625 L 8.4375 0 L 1.03125 0 L 1.03125 -11.515625 L 3.40625 -11.515625 Z M 3.40625 -1.90625 "/></g></g></g><g fill="#ffffff" fill-opacity="1"><g transform="translate(141.785638, 351.630387)"><g><path d="M 10.484375 -5.5 C 10.484375 -4.363281 10.28125 -3.367188 9.875 -2.515625 C 9.476562 -1.660156 8.90625 -1 8.15625 -0.53125 C 7.414062 -0.0703125 6.5625 0.15625 5.59375 0.15625 C 4.644531 0.15625 3.796875 -0.0703125 3.046875 -0.53125 C 2.296875 -0.988281 1.710938 -1.640625 1.296875 -2.484375 C 0.890625 -3.335938 0.6875 -4.320312 0.6875 -5.4375 L 0.6875 -6 C 0.6875 -7.132812 0.890625 -8.128906 1.296875 -8.984375 C 1.703125 -9.847656 2.273438 -10.507812 3.015625 -10.96875 C 3.765625 -11.4375 4.617188 -11.671875 5.578125 -11.671875 C 6.535156 -11.671875 7.382812 -11.4375 8.125 -10.96875 C 8.875 -10.507812 9.453125 -9.847656 9.859375 -8.984375 C 10.273438 -8.128906 10.484375 -7.132812 10.484375 -6 Z M 8.078125 -6.015625 C 8.078125 -7.222656 7.859375 -8.140625 7.421875 -8.765625 C 6.992188 -9.390625 6.378906 -9.703125 5.578125 -9.703125 C 4.785156 -9.703125 4.171875 -9.390625 3.734375 -8.765625 C 3.304688 -8.148438 3.085938 -7.242188 3.078125 -6.046875 L 3.078125 -5.5 C 3.078125 -4.320312 3.289062 -3.40625 3.71875 -2.75 C 4.15625 -2.101562 4.78125 -1.78125 5.59375 -1.78125 C 6.394531 -1.78125 7.003906 -2.09375 7.421875 -2.71875 C 7.847656 -3.34375 8.066406 -4.253906 8.078125 -5.453125 Z M 8.078125 -6.015625 "/></g></g></g><g fill="#ffffff" fill-opacity="1"><g transform="translate(157.299774, 351.630387)"><g><path d="M 10.140625 -1.453125 C 9.710938 -0.941406 9.109375 -0.546875 8.328125 -0.265625 C 7.546875 0.015625 6.679688 0.15625 5.734375 0.15625 C 4.734375 0.15625 3.859375 -0.0546875 3.109375 -0.484375 C 2.359375 -0.921875 1.78125 -1.550781 1.375 -2.375 C 0.96875 -3.207031 0.757812 -4.179688 0.75 -5.296875 L 0.75 -6.09375 C 0.75 -7.238281 0.941406 -8.226562 1.328125 -9.0625 C 1.710938 -9.90625 2.269531 -10.550781 3 -11 C 3.726562 -11.445312 4.582031 -11.671875 5.5625 -11.671875 C 6.925781 -11.671875 7.992188 -11.34375 8.765625 -10.6875 C 9.535156 -10.039062 9.992188 -9.09375 10.140625 -7.84375 L 7.828125 -7.84375 C 7.722656 -8.507812 7.488281 -8.992188 7.125 -9.296875 C 6.757812 -9.597656 6.265625 -9.75 5.640625 -9.75 C 4.828125 -9.75 4.207031 -9.445312 3.78125 -8.84375 C 3.363281 -8.238281 3.15625 -7.335938 3.15625 -6.140625 L 3.15625 -5.40625 C 3.15625 -4.195312 3.382812 -3.285156 3.84375 -2.671875 C 4.300781 -2.054688 4.972656 -1.75 5.859375 -1.75 C 6.742188 -1.75 7.378906 -1.9375 7.765625 -2.3125 L 7.765625 -4.296875 L 5.609375 -4.296875 L 5.609375 -6.046875 L 10.140625 -6.046875 Z M 10.140625 -1.453125 "/></g></g></g><g fill="#ffffff" fill-opacity="1"><g transform="translate(172.663775, 351.630387)"><g><path d="M 5 -6.328125 L 7.390625 -11.515625 L 9.984375 -11.515625 L 6.203125 -4.171875 L 6.203125 0 L 3.796875 0 L 3.796875 -4.171875 L 0.015625 -11.515625 L 2.609375 -11.515625 Z M 5 -6.328125 "/></g></g></g><g fill="#ffffff" fill-opacity="1"><g transform="translate(187.008394, 351.630387)"><g/></g></g><g fill="#ffffff" fill-opacity="1"><g transform="translate(195.378992, 351.630387)"><g><path d="M 10.0625 -3.828125 C 9.96875 -2.585938 9.507812 -1.613281 8.6875 -0.90625 C 7.863281 -0.195312 6.78125 0.15625 5.4375 0.15625 C 3.957031 0.15625 2.796875 -0.335938 1.953125 -1.328125 C 1.109375 -2.328125 0.6875 -3.691406 0.6875 -5.421875 L 0.6875 -6.125 C 0.6875 -7.226562 0.878906 -8.203125 1.265625 -9.046875 C 1.648438 -9.890625 2.203125 -10.535156 2.921875 -10.984375 C 3.648438 -11.441406 4.5 -11.671875 5.46875 -11.671875 C 6.789062 -11.671875 7.859375 -11.3125 8.671875 -10.59375 C 9.484375 -9.882812 9.953125 -8.890625 10.078125 -7.609375 L 7.703125 -7.609375 C 7.648438 -8.347656 7.441406 -8.882812 7.078125 -9.21875 C 6.722656 -9.550781 6.1875 -9.71875 5.46875 -9.71875 C 4.675781 -9.71875 4.082031 -9.429688 3.6875 -8.859375 C 3.289062 -8.296875 3.085938 -7.421875 3.078125 -6.234375 L 3.078125 -5.359375 C 3.078125 -4.117188 3.265625 -3.210938 3.640625 -2.640625 C 4.023438 -2.066406 4.625 -1.78125 5.4375 -1.78125 C 6.164062 -1.78125 6.707031 -1.945312 7.0625 -2.28125 C 7.425781 -2.613281 7.632812 -3.128906 7.6875 -3.828125 Z M 10.0625 -3.828125 "/></g></g></g><g fill="#ffffff" fill-opacity="1"><g transform="translate(210.308369, 351.630387)"><g><path d="M 10.484375 -5.5 C 10.484375 -4.363281 10.28125 -3.367188 9.875 -2.515625 C 9.476562 -1.660156 8.90625 -1 8.15625 -0.53125 C 7.414062 -0.0703125 6.5625 0.15625 5.59375 0.15625 C 4.644531 0.15625 3.796875 -0.0703125 3.046875 -0.53125 C 2.296875 -0.988281 1.710938 -1.640625 1.296875 -2.484375 C 0.890625 -3.335938 0.6875 -4.320312 0.6875 -5.4375 L 0.6875 -6 C 0.6875 -7.132812 0.890625 -8.128906 1.296875 -8.984375 C 1.703125 -9.847656 2.273438 -10.507812 3.015625 -10.96875 C 3.765625 -11.4375 4.617188 -11.671875 5.578125 -11.671875 C 6.535156 -11.671875 7.382812 -11.4375 8.125 -10.96875 C 8.875 -10.507812 9.453125 -9.847656 9.859375 -8.984375 C 10.273438 -8.128906 10.484375 -7.132812 10.484375 -6 Z M 8.078125 -6.015625 C 8.078125 -7.222656 7.859375 -8.140625 7.421875 -8.765625 C 6.992188 -9.390625 6.378906 -9.703125 5.578125 -9.703125 C 4.785156 -9.703125 4.171875 -9.390625 3.734375 -8.765625 C 3.304688 -8.148438 3.085938 -7.242188 3.078125 -6.046875 L 3.078125 -5.5 C 3.078125 -4.320312 3.289062 -3.40625 3.71875 -2.75 C 4.15625 -2.101562 4.78125 -1.78125 5.59375 -1.78125 C 6.394531 -1.78125 7.003906 -2.09375 7.421875 -2.71875 C 7.847656 -3.34375 8.066406 -4.253906 8.078125 -5.453125 Z M 8.078125 -6.015625 "/></g></g></g><g fill="#ffffff" fill-opacity="1"><g transform="translate(225.822505, 351.630387)"><g><path d="M 10.390625 0 L 8.015625 0 L 3.40625 -7.578125 L 3.40625 0 L 1.03125 0 L 1.03125 -11.515625 L 3.40625 -11.515625 L 8.015625 -3.921875 L 8.015625 -11.515625 L 10.390625 -11.515625 Z M 10.390625 0 "/></g></g></g><g fill="#ffffff" fill-opacity="1"><g transform="translate(241.58951, 351.630387)"><g><path d="M 10.390625 0 L 8.015625 0 L 3.40625 -7.578125 L 3.40625 0 L 1.03125 0 L 1.03125 -11.515625 L 3.40625 -11.515625 L 8.015625 -3.921875 L 8.015625 -11.515625 L 10.390625 -11.515625 Z M 10.390625 0 "/></g></g></g><g fill="#ffffff" fill-opacity="1"><g transform="translate(257.356516, 351.630387)"><g><path d="M 7.953125 -4.984375 L 3.40625 -4.984375 L 3.40625 -1.90625 L 8.734375 -1.90625 L 8.734375 0 L 1.03125 0 L 1.03125 -11.515625 L 8.71875 -11.515625 L 8.71875 -9.59375 L 3.40625 -9.59375 L 3.40625 -6.84375 L 7.953125 -6.84375 Z M 7.953125 -4.984375 "/></g></g></g><g fill="#ffffff" fill-opacity="1"><g transform="translate(270.800278, 351.630387)"><g><path d="M 10.0625 -3.828125 C 9.96875 -2.585938 9.507812 -1.613281 8.6875 -0.90625 C 7.863281 -0.195312 6.78125 0.15625 5.4375 0.15625 C 3.957031 0.15625 2.796875 -0.335938 1.953125 -1.328125 C 1.109375 -2.328125 0.6875 -3.691406 0.6875 -5.421875 L 0.6875 -6.125 C 0.6875 -7.226562 0.878906 -8.203125 1.265625 -9.046875 C 1.648438 -9.890625 2.203125 -10.535156 2.921875 -10.984375 C 3.648438 -11.441406 4.5 -11.671875 5.46875 -11.671875 C 6.789062 -11.671875 7.859375 -11.3125 8.671875 -10.59375 C 9.484375 -9.882812 9.953125 -8.890625 10.078125 -7.609375 L 7.703125 -7.609375 C 7.648438 -8.347656 7.441406 -8.882812 7.078125 -9.21875 C 6.722656 -9.550781 6.1875 -9.71875 5.46875 -9.71875 C 4.675781 -9.71875 4.082031 -9.429688 3.6875 -8.859375 C 3.289062 -8.296875 3.085938 -7.421875 3.078125 -6.234375 L 3.078125 -5.359375 C 3.078125 -4.117188 3.265625 -3.210938 3.640625 -2.640625 C 4.023438 -2.066406 4.625 -1.78125 5.4375 -1.78125 C 6.164062 -1.78125 6.707031 -1.945312 7.0625 -2.28125 C 7.425781 -2.613281 7.632812 -3.128906 7.6875 -3.828125 Z M 10.0625 -3.828125 "/></g></g></g><g fill="#ffffff" fill-opacity="1"><g transform="translate(285.729667, 351.630387)"><g><path d="M 9.6875 -9.59375 L 6.171875 -9.59375 L 6.171875 0 L 3.796875 0 L 3.796875 -9.59375 L 0.3125 -9.59375 L 0.3125 -11.515625 L 9.6875 -11.515625 Z M 9.6875 -9.59375 "/></g></g></g><g fill="#ffffff" fill-opacity="1"><g transform="translate(300.082182, 351.630387)"><g><path d="M 3.546875 0 L 1.171875 0 L 1.171875 -11.515625 L 3.546875 -11.515625 Z M 3.546875 0 "/></g></g></g><g fill="#ffffff" fill-opacity="1"><g transform="translate(309.140272, 351.630387)"><g><path d="M 10.484375 -5.5 C 10.484375 -4.363281 10.28125 -3.367188 9.875 -2.515625 C 9.476562 -1.660156 8.90625 -1 8.15625 -0.53125 C 7.414062 -0.0703125 6.5625 0.15625 5.59375 0.15625 C 4.644531 0.15625 3.796875 -0.0703125 3.046875 -0.53125 C 2.296875 -0.988281 1.710938 -1.640625 1.296875 -2.484375 C 0.890625 -3.335938 0.6875 -4.320312 0.6875 -5.4375 L 0.6875 -6 C 0.6875 -7.132812 0.890625 -8.128906 1.296875 -8.984375 C 1.703125 -9.847656 2.273438 -10.507812 3.015625 -10.96875 C 3.765625 -11.4375 4.617188 -11.671875 5.578125 -11.671875 C 6.535156 -11.671875 7.382812 -11.4375 8.125 -10.96875 C 8.875 -10.507812 9.453125 -9.847656 9.859375 -8.984375 C 10.273438 -8.128906 10.484375 -7.132812 10.484375 -6 Z M 8.078125 -6.015625 C 8.078125 -7.222656 7.859375 -8.140625 7.421875 -8.765625 C 6.992188 -9.390625 6.378906 -9.703125 5.578125 -9.703125 C 4.785156 -9.703125 4.171875 -9.390625 3.734375 -8.765625 C 3.304688 -8.148438 3.085938 -7.242188 3.078125 -6.046875 L 3.078125 -5.5 C 3.078125 -4.320312 3.289062 -3.40625 3.71875 -2.75 C 4.15625 -2.101562 4.78125 -1.78125 5.59375 -1.78125 C 6.394531 -1.78125 7.003906 -2.09375 7.421875 -2.71875 C 7.847656 -3.34375 8.066406 -4.253906 8.078125 -5.453125 Z M 8.078125 -6.015625 "/></g></g></g><g fill="#ffffff" fill-opacity="1"><g transform="translate(324.654431, 351.630387)"><g><path d="M 10.390625 0 L 8.015625 0 L 3.40625 -7.578125 L 3.40625 0 L 1.03125 0 L 1.03125 -11.515625 L 3.40625 -11.515625 L 8.015625 -3.921875 L 8.015625 -11.515625 L 10.390625 -11.515625 Z M 10.390625 0 "/></g></g></g></svg>